<?xml version="1.0" encoding="utf-8"?>
<!-- Generator: Adobe Illustrator 16.0.0, SVG Export Plug-In . SVG Version: 6.00 Build 0)  -->
<!DOCTYPE svg PUBLIC "-//W3C//DTD SVG 1.1//EN" "http://www.w3.org/Graphics/SVG/1.1/DTD/svg11.dtd">
<svg version="1.1" id="图层_1" xmlns="http://www.w3.org/2000/svg" xmlns:xlink="http://www.w3.org/1999/xlink" x="0px" y="0px"
	 width="16px" height="16px" viewBox="0 0 16 16" enable-background="new 0 0 16 16" xml:space="preserve">
<g>
	<path fill="#6686B9" d="M13.108,10.41c-0.225-0.592-2.354-1.667-2.928-1.891C10.143,8.5,9.877,8.403,9.877,8.361V7.792
		c0.489-0.502,1.214-1.475,1.347-2.648c0.203-1.742-0.736-3.151-1.988-3.163H9.177C8.433,1.987,7.89,2.356,7.557,2.948
		C7.599,2.992,7.647,3.023,7.688,3.07c0.899,1.017,1.311,2.498,1.128,4.063c-0.145,1.277-0.723,2.343-1.252,3.078
		c0.621,0.299,1.533,0.783,2.277,1.346h3.449C13.29,11.557,13.317,10.943,13.108,10.41z"/>
	<path fill="#6686B9" d="M15.856,7.945c-0.18-0.469-1.864-1.318-2.318-1.497c-0.03-0.016-0.24-0.092-0.24-0.125v-0.45
		c0.387-0.396,0.959-1.166,1.066-2.098c0.159-1.377-0.584-2.495-1.574-2.501h-0.048c-0.499,0.003-0.878,0.223-1.146,0.574
		c0.736,0.884,1.078,2.129,0.926,3.444c-0.111,0.982-0.518,1.82-0.928,2.438c0.555,0.277,1.252,0.671,1.816,1.123h2.588
		C15.999,8.853,16.021,8.368,15.856,7.945z"/>
	<path fill="#6686B9" d="M3.845,11.057c-0.688,0.273-3.311,1.57-3.584,2.287C0.012,13.986,0,14.727,0,14.727h10.015
		c0,0,0.029-0.74-0.221-1.383c-0.272-0.717-2.842-2.014-3.537-2.287c-0.045-0.021-0.365-0.135-0.365-0.191V10.18
		C6.482,9.578,7.357,8.4,7.518,6.981c0.245-2.101-0.89-3.804-2.401-3.816h-0.07C3.278,3.177,2.435,4.894,2.672,6.992
		c0.165,1.416,0.86,2.586,1.449,3.188v0.686C4.121,10.922,3.894,11.035,3.845,11.057z"/>
</g>
</svg>
