<?xml version="1.0" encoding="utf-8"?>
<!-- Generator: Adobe Illustrator 16.0.0, SVG Export Plug-In . SVG Version: 6.00 Build 0)  -->
<!DOCTYPE svg PUBLIC "-//W3C//DTD SVG 1.1//EN" "http://www.w3.org/Graphics/SVG/1.1/DTD/svg11.dtd">
<svg version="1.1" id="图层_1" xmlns="http://www.w3.org/2000/svg" xmlns:xlink="http://www.w3.org/1999/xlink" x="0px" y="0px"
	 width="16px" height="16px" viewBox="0 0 16 16" enable-background="new 0 0 16 16" xml:space="preserve">
<g>
	<rect x="6.402" y="3.353" fill="#6686B9" width="4.471" height="1.118"/>
	<g>
		<rect x="3.076" y="5.562" fill="#6686B9" width="7.797" height="1.118"/>
		<path fill="#6686B9" d="M9.715,11.313l3.475,4.413c0.531,0.51,1.105,0.191,1.354-0.027l0.283-0.279
			c0.213-0.245,0.535-0.745,0.074-1.357l-4.461-3.472c0.354-0.668,0.26-1.514-0.303-2.076C9.674,8.053,9.023,7.906,8.434,8.062
			L9.51,9.141v1.246H8.262L7.188,9.311c-0.158,0.59-0.012,1.241,0.447,1.701C8.199,11.577,9.047,11.674,9.715,11.313z
			 M13.641,15.042c-0.143-0.146-0.143-0.381,0-0.522c0.145-0.145,0.379-0.145,0.523,0c0.141,0.142,0.141,0.376,0,0.522
			C14.02,15.184,13.785,15.184,13.641,15.042z"/>
		<path fill="#6686B9" d="M5.984,14.529H1.934V4.471h3.352V1.117h6.707v7.825l0.514-0.515v-0.54l0.604-0.3V0H4.168L0.951,3.353
			L0.814,3.493v0.978v11.176h5.381C6.018,15.279,5.947,14.897,5.984,14.529z"/>
		<path fill="#6686B9" d="M6.477,13.411c0.025-0.028,0.043-0.06,0.07-0.087L6.6,13.271l1.115-0.877
			c-0.064-0.029-0.123-0.067-0.186-0.1H6.875H6.402H3.051v1.117h3.352H6.477z"/>
		<path fill="#6686B9" d="M6.045,10.035H3.076v1.118h3.293C6.18,10.809,6.08,10.428,6.045,10.035z"/>
		<polygon fill="#6686B9" points="6.432,7.799 3.076,7.799 3.076,8.917 6.135,8.917 		"/>
		<path fill="#6686B9" d="M10.803,11.385l0.387-0.059l2.434-2.436V8.58l1.25-0.624l0.312,0.312l-0.625,1.25h-0.312l-2.467,2.464
			l-0.047,0.333l-2.721,3.497c-0.615,0.237-1.113,0.14-1.357-0.073l-0.279-0.281c-0.219-0.251-0.539-0.827-0.027-1.355
			L10.803,11.385z"/>
	</g>
</g>
</svg>
