<?xml version="1.0" encoding="utf-8"?>
<!-- Generator: Adobe Illustrator 16.0.0, SVG Export Plug-In . SVG Version: 6.00 Build 0)  -->
<!DOCTYPE svg PUBLIC "-//W3C//DTD SVG 1.1//EN" "http://www.w3.org/Graphics/SVG/1.1/DTD/svg11.dtd">
<svg version="1.1" id="图层_1" xmlns="http://www.w3.org/2000/svg" xmlns:xlink="http://www.w3.org/1999/xlink" x="0px" y="0px"
	 width="16px" height="16px" viewBox="0 0 16 16" enable-background="new 0 0 16 16" xml:space="preserve">
<g>
	<path fill="#6686B9" d="M7.999,2.477c-4.247,0-7.512,4.783-7.641,4.986L0,7.996l0.358,0.531c0.129,0.213,3.394,4.997,7.641,4.997
		c0.489,0,0.964-0.07,1.424-0.182c-0.303-0.645-0.2-1.346,0.299-1.861l0.047-0.049l0.551-0.434c-0.017-0.01-0.031-0.025-0.048-0.037
		c-0.723,0.387-1.492,0.654-2.272,0.654c-2.515,0-4.778-2.5-5.658-3.622c1.062-1.346,3.328-3.607,5.658-3.607
		c2.515,0,4.779,2.5,5.658,3.621c-0.03,0.038-0.071,0.084-0.104,0.123c0.029,0.062,0.067,0.119,0.091,0.182l0.247-0.248V7.639
		l1.376-0.687C14.284,5.678,11.476,2.477,7.999,2.477z M9.582,7.674l0.521-0.53l0.562-0.146C10.258,5.92,9.222,5.147,7.999,5.147
		c-1.576,0-2.856,1.28-2.856,2.849c0,1.577,1.28,2.858,2.856,2.858c0.617,0,1.186-0.201,1.653-0.535
		c-0.34-0.525-0.461-1.178-0.295-1.799L9.582,7.674z"/>
	<path fill="#6686B9" d="M13.723,10.535l1.613-1.612h0.222L16,8.037l-0.222-0.222l-0.887,0.442v0.221l-1.667,1.668l-0.593-0.461
		c0.252-0.475,0.185-1.076-0.215-1.474c-0.328-0.328-0.789-0.432-1.208-0.322l0.764,0.766v0.884h-0.886l-0.764-0.762
		c-0.111,0.418-0.007,0.879,0.319,1.206c0.4,0.402,1.002,0.471,1.476,0.215l0.32,0.406l-1.999,1.572
		c-0.363,0.375-0.136,0.785,0.021,0.963l0.198,0.199c0.173,0.152,0.526,0.221,0.962,0.053l1.497-1.924l1.467,1.861
		c0.376,0.363,0.784,0.137,0.961-0.018l0.201-0.199c0.15-0.174,0.379-0.527,0.052-0.963L13.723,10.535z M15.274,12.844
		c-0.102,0.1-0.268,0.1-0.369,0c-0.103-0.104-0.103-0.27,0-0.371c0.102-0.102,0.268-0.102,0.369,0S15.376,12.74,15.274,12.844z"/>
</g>
</svg>
