<?xml version="1.0" standalone="no"?><!DOCTYPE svg PUBLIC "-//W3C//DTD SVG 1.1//EN" "http://www.w3.org/Graphics/SVG/1.1/DTD/svg11.dtd"><svg t="1504077619879" class="icon" style="" viewBox="0 0 1024 1024" version="1.1" xmlns="http://www.w3.org/2000/svg" p-id="1919" xmlns:xlink="http://www.w3.org/1999/xlink" width="16" height="16"><defs><style type="text/css"></style></defs><path d="M771.675716 359.077122c-6.783497 0-13.555737 0.345877-20.25737 1.038656-22.36538-73.204256-90.463338-125.268028-169.43597-125.268028-9.193383 0-21.937638 0.74292-33.416064 2.180666-45.001937-38.07313-92.356454-55.942103-147.918911-55.942103-118.410853 0-214.657918 85.132936-234.241952 204.550723-51.665707 32.031531-85.466534 86.190011-85.466534 139.033543 0 87.932702 70.369697 160.071695 158.850891 165.30079-0.252757-3.377934-0.421602-6.777357-0.421602-10.212596 0-44.781926 28.614711-90.670046 72.401983-117.822452 16.569374-101.165074 98.135064-173.271322 198.446701-173.271322 47.091528 0 87.210247 15.110139 125.32124 47.3801 9.735735-1.214664 20.522406-1.871627 28.325116-1.871627 66.901713 0 124.57218 44.10859 143.5453 106.133226 5.683443-0.557702 11.409864-0.876973 17.155728-0.876973 43.579541 0 83.541695 18.36937 111.306039 47.072085 8.584516-19.218714 13.385868-40.108486 13.385868-61.830207C949.254134 434.915367 867.927897 359.077122 771.675716 359.077122zM799.627325 577.212234c-5.027503 0-10.038634 0.279363-15.010879 0.77055-16.603143-54.276161-67.065442-92.873224-125.606743-92.873224-6.828522 0-16.266475 0.576121-24.785499 1.639337-33.348526-28.238135-68.454068-41.460274-109.660562-41.460274-87.775112 0-159.146627 63.096037-173.645852 151.615093-38.315654 23.760147-63.35391 63.914682-63.35391 103.100146 0 3.006474 0.149403 5.981225 0.369414 8.937556 4.690836 63.525825 58.94346 113.812115 125.006062 113.812115l386.68797 0c71.354118 0 131.643226-56.223512 131.643226-122.749672 0-30.985712-13.077853-59.724243-34.246989-81.601506C872.72925 593.285305 837.76083 577.212234 799.627325 577.212234zM799.627325 778.524193 412.939355 778.524193c-46.063105 0-75.92011-34.422997-80.474846-69.296249-0.407276-3.079128-0.682545-6.157233-0.682545-9.225105 0-26.013467 20.423145-54.619992 49.64877-69.542866l10.68741-5.473665 1.239224-11.917424c7.560186-71.589478 62.741973-123.561154 131.206274-123.561154 33.211403 0 60.298318 11.42112 87.821161 36.983309l8.667404 8.05649 11.508102-2.737344c5.919826-1.403976 18.8493-2.452865 26.449395-2.452865 44.091194 0 81.279165 32.992415 86.487793 76.752058l3.001357 25.298176 24.620747-6.519484c8.591679-2.279926 17.505699-3.431146 26.508747-3.431146 29.1806 0 56.090483 14.410198 72.131831 35.456536 9.56075 12.554944 15.263635 27.456329 15.263635 43.088354C887.022791 741.833549 846.203106 778.524193 799.627325 778.524193z" p-id="1920" fill="#6686b9"></path></svg>