<?xml version="1.0" encoding="utf-8"?>
<!-- Generator: Adobe Illustrator 16.0.0, SVG Export Plug-In . SVG Version: 6.00 Build 0)  -->
<!DOCTYPE svg PUBLIC "-//W3C//DTD SVG 1.1//EN" "http://www.w3.org/Graphics/SVG/1.1/DTD/svg11.dtd">
<svg version="1.1" id="图层_1" xmlns="http://www.w3.org/2000/svg" xmlns:xlink="http://www.w3.org/1999/xlink" x="0px" y="0px"
	 width="16px" height="16px" viewBox="0 0 16 16" enable-background="new 0 0 16 16" xml:space="preserve">
<g>
	<g>
		<path fill="#6686B9" d="M11.393,11.381l2.928,3.717c0.446,0.428,0.929,0.162,1.139-0.023l0.24-0.236
			c0.178-0.205,0.449-0.627,0.062-1.143l-3.759-2.924c0.299-0.562,0.22-1.275-0.255-1.75c-0.39-0.388-0.937-0.511-1.434-0.38
			l0.906,0.908V10.6h-1.051L9.263,9.693c-0.132,0.496-0.009,1.045,0.379,1.432C10.116,11.602,10.83,11.684,11.393,11.381z
			 M14.701,14.521c-0.122-0.123-0.122-0.32,0-0.441c0.12-0.121,0.316-0.121,0.438,0c0.119,0.121,0.119,0.318,0,0.441
			C15.018,14.641,14.821,14.641,14.701,14.521z"/>
		<path fill="#6686B9" d="M12.309,11.441l0.325-0.051l2.051-2.051V9.078l1.053-0.526L16,8.817l-0.526,1.05h-0.261l-2.08,2.076
			l-0.039,0.281l-2.291,2.945c-0.519,0.199-0.938,0.117-1.144-0.061l-0.235-0.238C9.24,14.66,8.969,14.174,9.4,13.729L12.309,11.441
			z"/>
	</g>
	<path fill="#6686B9" d="M8.682,13.033l0.047-0.049l0.872-0.686c-0.243-0.119-0.471-0.27-0.667-0.467
		c-0.127-0.127-0.229-0.273-0.323-0.424c-0.398,0.148-0.825,0.242-1.276,0.242c-2.016,0-3.648-1.629-3.648-3.646
		C3.686,7.477,3.799,6.981,4,6.53c0.563-1.285,1.843-2.184,3.334-2.184c0.431,0,0.838,0.088,1.22,0.226
		C8.776,4.65,8.99,4.75,9.19,4.868c0.964,0.575,1.642,1.574,1.767,2.748c0.564,0.059,1.091,0.293,1.496,0.699
		C12.791,8.653,13,9.068,13.102,9.508l0.583-0.582V8.459l0.984-0.492V6.71c0-0.485-0.384-0.868-0.861-0.868h-1.717l1.229-1.225
		c0.34-0.336,0.34-0.877,0-1.214l-1.385-1.397c-0.014-0.014-0.033-0.008-0.046-0.018c-0.159-0.137-0.359-0.221-0.564-0.221
		c-0.223,0-0.443,0.076-0.609,0.238l-1.22,1.222v-1.69c0-0.482-0.391-0.866-0.863-0.866H6.047c-0.482,0-0.864,0.384-0.864,0.866
		V3.25L4,2.07L3.963,2.032c-0.168-0.17-0.391-0.257-0.61-0.257c-0.218,0-0.438,0.087-0.606,0.257L2.719,2.059L1.352,3.415
		c-0.16,0.164-0.25,0.389-0.25,0.617c0,0.223,0.09,0.442,0.25,0.606l1.21,1.204H0.869C0.394,5.842,0,6.225,0,6.71v2.584
		c0,0.469,0.394,0.859,0.869,0.859h1.692l-1.22,1.221c-0.344,0.336-0.344,0.877,0,1.217l0.544,0.543l0.844,0.84
		c0.165,0.174,0.388,0.254,0.61,0.254c0.218,0,0.441-0.08,0.609-0.254l1.233-1.225v1.715c0,0.48,0.382,0.863,0.864,0.863h2.482
		C8.012,14.561,8.07,13.664,8.682,13.033z"/>
</g>
</svg>
