<?xml version="1.0" encoding="utf-8"?>
<!-- Generator: Adobe Illustrator 16.0.0, SVG Export Plug-In . SVG Version: 6.00 Build 0)  -->
<!DOCTYPE svg PUBLIC "-//W3C//DTD SVG 1.1//EN" "http://www.w3.org/Graphics/SVG/1.1/DTD/svg11.dtd">
<svg version="1.1" id="图层_1" xmlns="http://www.w3.org/2000/svg" xmlns:xlink="http://www.w3.org/1999/xlink" x="0px" y="0px"
	 width="16px" height="16px" viewBox="0 0 16 16" enable-background="new 0 0 16 16" xml:space="preserve">
<g>
	<path fill="#6686B9" d="M2.28,6.449h6.561C9.088,6.128,9.39,5.866,9.727,5.67H2.28V6.449z"/>
	<path fill="#6686B9" d="M6.051,4.582V3.498c0-0.025-0.061-0.049-0.126-0.049H3.094c-0.075,0-0.131,0.023-0.131,0.049v1.084
		c0,0.027,0.056,0.049,0.131,0.049h2.831C5.99,4.63,6.051,4.609,6.051,4.582z"/>
	<path fill="#6686B9" d="M1.446,9.635c-0.267,0-0.483-0.217-0.483-0.482V2.407h10.601v2.878c0.336,0.031,0.664,0.104,0.965,0.237
		V1.444c0-0.798-0.647-1.445-1.445-1.445H1.446C0.648-0.001,0,0.646,0,1.444v7.708c0,0.797,0.648,1.445,1.446,1.445h5.177
		c-0.117-0.299-0.188-0.621-0.194-0.963H1.446z"/>
	<path fill="#6686B9" d="M9.739,4.582V3.498c0-0.025-0.045-0.049-0.094-0.049h-2.14c-0.05,0-0.095,0.023-0.095,0.049v1.084
		c0,0.027,0.045,0.049,0.095,0.049h2.14C9.694,4.63,9.739,4.609,9.739,4.582z"/>
	<path fill="#6686B9" d="M2.28,7.448v0.778h4.493c0.169-0.301,0.396-0.561,0.655-0.778H2.28z"/>
	<g>
		<path fill="#6686B9" d="M15.351,7.657c-0.534-0.533-1.271-0.736-1.961-0.611c-0.088-0.139-0.188-0.271-0.309-0.391
			c-0.884-0.882-2.313-0.882-3.196,0C9.619,6.921,9.438,7.239,9.332,7.574c-1.055,0.02-1.903,0.877-1.903,1.934
			c0,1.051,0.837,1.9,1.881,1.932v0.006h4.553v-0.008c0.539-0.02,1.075-0.229,1.487-0.643C16.216,9.93,16.218,8.524,15.351,7.657z
			 M9.222,10.436c-0.543-0.01-0.822-0.207-0.837-0.59h0.528c0.016,0.145,0.118,0.221,0.309,0.229
			c0.17-0.006,0.257-0.076,0.263-0.215c-0.003-0.104-0.13-0.182-0.379-0.23C8.617,9.543,8.385,9.34,8.407,9.021
			c0.025-0.34,0.297-0.53,0.814-0.567C9.698,8.459,9.95,8.646,9.975,9.014H9.469C9.456,8.899,9.374,8.837,9.222,8.83
			C9.063,8.827,8.987,8.883,8.992,8.998c0,0.075,0.121,0.145,0.364,0.209c0.395,0.037,0.633,0.244,0.716,0.627
			C10.04,10.189,9.756,10.391,9.222,10.436z M11.52,8.89h-0.416v0.87c-0.001,0.129,0.013,0.213,0.046,0.25
			c0.027,0.047,0.089,0.066,0.183,0.064c0.046,0,0.105-0.006,0.18-0.014v0.33c-0.077,0.02-0.227,0.035-0.445,0.045
			c-0.195,0-0.332-0.047-0.41-0.141c-0.079-0.088-0.118-0.25-0.116-0.482V8.89h-0.381V8.507h0.381V8.14l0.563-0.203v0.57h0.416V8.89
			z M12.981,10.391c-0.014-0.078-0.021-0.16-0.021-0.248h-0.008c-0.11,0.197-0.302,0.295-0.577,0.293
			c-0.397-0.016-0.603-0.203-0.614-0.561c0.02-0.279,0.152-0.477,0.4-0.592c0.19-0.078,0.438-0.111,0.742-0.102V9.006
			c-0.021-0.15-0.107-0.228-0.266-0.237c-0.153,0.011-0.234,0.103-0.247,0.274H11.85c0.005-0.211,0.091-0.368,0.255-0.468
			c0.138-0.08,0.322-0.12,0.556-0.12c0.527,0.008,0.794,0.243,0.799,0.704v1.025c0.002,0.045,0.01,0.098,0.023,0.154
			c0.002,0.023,0.004,0.043,0.006,0.053H12.981z M15.053,8.89h-0.417v0.87c-0.002,0.129,0.013,0.213,0.045,0.25
			c0.028,0.047,0.089,0.066,0.185,0.064c0.045,0,0.104-0.006,0.18-0.014v0.33c-0.078,0.02-0.227,0.035-0.446,0.045
			c-0.195,0-0.331-0.047-0.409-0.141c-0.08-0.088-0.119-0.25-0.116-0.482V8.89H13.69V8.507h0.383V8.14l0.562-0.203v0.57h0.417V8.89z
			"/>
		<path fill="#6686B9" d="M12.304,9.805c0.01,0.17,0.102,0.26,0.277,0.27c0.222,0.002,0.33-0.186,0.322-0.562
			C12.504,9.494,12.304,9.594,12.304,9.805z"/>
	</g>
</g>
</svg>
