<?xml version="1.0" encoding="utf-8"?>
<!-- Generator: Adobe Illustrator 16.0.0, SVG Export Plug-In . SVG Version: 6.00 Build 0)  -->
<!DOCTYPE svg PUBLIC "-//W3C//DTD SVG 1.1//EN" "http://www.w3.org/Graphics/SVG/1.1/DTD/svg11.dtd">
<svg version="1.1" id="图层_1" xmlns="http://www.w3.org/2000/svg" xmlns:xlink="http://www.w3.org/1999/xlink" x="0px" y="0px"
	 width="16px" height="16px" viewBox="0 0 16 16" enable-background="new 0 0 16 16" xml:space="preserve">
<g>
	<path fill="#6686B9" d="M3.446,0L0.019,3.429V16h9.479c-0.224-0.37-0.303-0.768-0.246-1.144H1.161V4.572h3.428v-3.43h6.857v8.189
		c0.023,0,0.047-0.009,0.07-0.009c0.383,0,0.746,0.104,1.072,0.282V0H3.446z M5.731,4.569C5.918,4.54,6.107,4.521,6.304,4.521
		c0.154,0,0.297,0.034,0.444,0.052h3.556V3.429H5.731V4.569z M10.304,6.726V5.715H9.275C9.699,6.061,10.046,6.422,10.304,6.726z
		 M9.283,11.428c0.009-0.145,0.018-0.29,0.056-0.433l0.157-0.591c-0.429,0.381-0.939,0.759-1.543,1.023H9.283z M2.304,11.428h2.365
		c-0.663-0.293-1.235-0.719-1.69-1.143H2.304V11.428z M9.508,12.571H2.304v1.143h7.693l0.304-0.239
		c-0.138-0.088-0.267-0.191-0.385-0.31C9.742,12.991,9.613,12.787,9.508,12.571z M6.304,6.795c-0.753,0-1.364,0.612-1.364,1.361
		c0,0.753,0.611,1.363,1.364,1.363s1.364-0.61,1.364-1.363C7.668,7.407,7.057,6.795,6.304,6.795z M2.304,6.724
		c0.253-0.297,0.602-0.661,1.028-1.009H2.304V6.724z M10.123,8.156L9.951,7.901c-0.066-0.097-1.62-2.381-3.647-2.381
		S2.717,7.805,2.656,7.901L2.484,8.156l0.172,0.253c0.061,0.103,1.62,2.385,3.647,2.385s3.581-2.282,3.647-2.385L10.123,8.156z
		 M6.304,9.884c-1.2,0-2.281-1.193-2.702-1.729C4.109,7.512,5.19,6.433,6.304,6.433c1.2,0,2.281,1.193,2.701,1.729
		C8.498,8.803,7.416,9.884,6.304,9.884z"/>
	<path fill="#6686B9" d="M13.704,13.011l1.613-1.611h0.222l0.442-0.887l-0.222-0.222l-0.887,0.442v0.221l-1.667,1.668l-0.593-0.461
		c0.252-0.474,0.185-1.075-0.215-1.474c-0.328-0.328-0.789-0.432-1.208-0.322l0.764,0.766v0.885h-0.886l-0.764-0.763
		c-0.111,0.418-0.007,0.88,0.319,1.206c0.4,0.401,1.002,0.47,1.476,0.215l0.32,0.406l-1.999,1.572
		c-0.363,0.375-0.136,0.784,0.021,0.962l0.198,0.2c0.173,0.151,0.526,0.22,0.962,0.052l1.497-1.923l1.467,1.861
		c0.376,0.362,0.784,0.137,0.961-0.019l0.201-0.198c0.15-0.174,0.379-0.528,0.052-0.963L13.704,13.011z M15.256,15.32
		c-0.102,0.1-0.268,0.1-0.369,0c-0.103-0.104-0.103-0.271,0-0.371c0.102-0.103,0.268-0.103,0.369,0
		C15.357,15.05,15.357,15.216,15.256,15.32z"/>
</g>
</svg>
